<?xml version="1.0" standalone="no"?>
<!DOCTYPE svg PUBLIC "-//W3C//DTD SVG 20010904//EN"
 "http://www.w3.org/TR/2001/REC-SVG-20010904/DTD/svg10.dtd">
<svg version="1.0" xmlns="http://www.w3.org/2000/svg"
 width="500.000000pt" height="500.000000pt" viewBox="0 0 500.000000 500.000000"
 preserveAspectRatio="xMidYMid meet">

<g transform="translate(0.000000,500.000000) scale(0.100000,-0.100000)"
fill="#ffffff" stroke="none">
<path d="M2825 3810 c-451 -27 -858 -60 -997 -80 -76 -11 -153 -43 -214 -88
-34 -25 -107 -111 -257 -302 -7 -8 -23 -29 -37 -46 -14 -17 -37 -46 -52 -65
-14 -19 -74 -95 -132 -169 -58 -74 -118 -160 -133 -190 -35 -70 -42 -168 -18
-255 9 -33 34 -130 56 -215 51 -199 91 -350 124 -475 53 -198 86 -324 140
-545 50 -201 59 -228 86 -252 l29 -28 518 0 c498 0 591 4 667 32 99 35 159 71
238 145 23 21 75 67 116 103 87 76 205 214 253 297 52 88 84 177 127 351 56
225 132 418 217 553 42 68 111 155 206 261 94 105 114 148 102 216 -30 165
-230 251 -434 185 -187 -60 -367 -214 -569 -485 -106 -143 -138 -176 -202
-208 -63 -33 -120 -27 -203 21 -39 23 -153 82 -253 131 -100 49 -185 93 -188
97 -6 11 159 241 188 262 12 9 56 21 97 28 239 38 575 94 640 107 153 31 259
75 317 133 151 150 87 411 -115 472 -53 15 -156 18 -317 9z m281 -186 c24 -6
54 -53 54 -84 0 -37 -29 -78 -73 -104 -38 -22 -119 -45 -262 -75 -57 -12 -303
-51 -505 -81 -183 -28 -227 -45 -305 -124 -64 -64 -315 -432 -315 -462 0 -32
17 -41 105 -54 92 -14 123 -23 260 -78 196 -78 330 -142 410 -195 108 -72 190
-175 230 -288 29 -81 62 -98 112 -55 26 22 28 30 26 89 -1 72 -43 175 -88 217
-14 13 -25 27 -25 31 0 5 26 26 58 48 90 62 144 120 222 236 47 69 137 182
185 230 121 122 274 205 377 205 41 0 108 -25 108 -41 0 -6 -20 -31 -44 -57
-244 -260 -383 -524 -476 -908 -62 -252 -112 -344 -272 -504 -123 -122 -223
-202 -306 -242 l-67 -33 -495 0 -495 0 -12 45 c-6 25 -21 81 -33 125 -12 44
-41 157 -65 250 -24 94 -50 195 -58 225 -33 117 -60 221 -98 370 -22 85 -53
201 -70 256 -17 61 -29 125 -29 161 0 57 2 60 72 153 39 52 139 178 221 280
165 205 158 197 207 260 94 122 109 127 500 159 536 45 886 61 946 45z"/>
</g>
</svg>
